<?xml version="1.0" encoding="utf-8"?>
<!-- Generator: Adobe Illustrator 23.0.1, SVG Export Plug-In . SVG Version: 6.00 Build 0)  -->
<svg version="1.2" baseProfile="tiny" id="Layer_1" xmlns="http://www.w3.org/2000/svg" xmlns:xlink="http://www.w3.org/1999/xlink"
	 x="0px" y="0px" viewBox="0 0 310.8 169.4" xml:space="preserve">
<path fill="#A6A9AB" d="M51.1,120.2l-0.2,0.2v0.5l-2.2,0.7l0.2-0.5v-0.2l-0.2,0.2l-1.9-0.7l1.4,0.2l1.2-1.2H49v-1.9l-0.2-0.5
	l1.7-0.5l-1.4-0.5l-0.2,0.7l-0.5-1v-1.2l0.2-0.5v0.7l0.2-1.2l1.4-1.2l-1.9-5.7l0.2-0.7l-0.2-0.5l0.5-0.5h-0.5v0.7l-0.5,0.2l0.2-0.7
	l-0.7-1l1.4-1.9l0.2-0.7l1.7-1l-1,0.5l-0.2-1v1l-0.7,0.2l-1,1.7v0.5l-1,0.5v0.7l-0.5-0.2l1,1l-0.5,1.7l-1.2-0.2l-0.2,0.7l-2.9,0.7
	l-3.6-0.7l-0.5-1.2l0.7-0.2l-1.4-1.2l-0.7-1.7v-0.7l-0.5,0.2l-1.4-1.2l-0.2-0.5l0.7-0.2l0.2-0.7l-1.2,0.2l-0.7-0.7l2.2-1v-1l0.7-0.5
	v-0.7l0.2,0.7l1-0.2l-0.2,0.5V98l1.9,0.7v1l-1.2,1l2.6-1.7l0.7,0.5l-0.2,1.4l1.7-0.7v-0.7l0.2,0.2l-2.2-1.4H43l-0.7-0.7l0.2-0.5
	l-1.4,1.2l-2.6-0.5L38,97l-1-0.5h-0.2h-0.2l-0.5,0.2h-0.2l-0.2-0.5l2.1-1.2l-1-0.2l-0.5,0.5l-0.5-0.7l0.7-0.7l-0.2-0.5l0.2,0.5
	l-0.5,0.5l-1-0.5l1-0.5v-0.7h-0.2l0.5-0.2l0.2-0.5l1.4-0.7l1-1l-2.4,1.4l-0.7,0.7l0.2,0.7l-1,0.5v0.5l-0.2,1l-1-0.7v-1.2l0.2-0.2
	l-1-0.7l-0.2-1l0.7-0.2v-0.7l-0.2-0.2l-1.2,0.2l-0.2-1l0.5-1.2v1l1.7-0.2l-1-0.7L33,87.4h2.4L34.6,86l0.5-1.2l3.6-3.6l1,0.2V82
	l1,0.7l-0.7,0.5l0.7-0.5l-0.2-0.5l0.2-0.5l-1,0.2l0.2-0.5l-0.2-0.2l1.9-1.7l-1.4,1.2l-0.2-1.7h0.5l-0.5-0.5l1.2-1.7l1.7,0.2l-1-1.2
	l1-0.7l1-0.2l1.9,0.7l0.2,0.7l-0.2,0.2h0.5l-1.2,1.2l1.2-1l1,1l1.2-0.2l1.9-1.4l0.2-0.5l1.7-1.9v-0.5l1.2,0.7l-0.7,0.5l4.3-0.2
	l1.9-2.1l0.2-1l-0.5-2.2v-1.7l-1-1.7l0.2-0.2l-1.4,0.2l0.7-1.4l1.4,0.2l-0.2-0.2l1.2-0.5l0.2-1l-1.2-2.2H59l-0.7-0.2l-1,1.4
	l-0.7,0.2l-1-0.7l0.2,0.2l-0.7,0.7l-1-0.2l-2.2,1.7L51.8,65l-0.7,0.5l-0.2-1.2l0.2-0.2l-1-0.7l-0.2-1.2l-1,0.5l1.2,1l-0.7,1L48,62.8
	l-3.1-0.7l-1.7,0.7l0.2-0.2l-1,0.2v-0.5l-0.2,0.7l0.7-0.2l-1.2,0.2l-4.5-2.4l-0.7-1.4l0.5-1.4l-1-1.2l-0.7-1.4v-1l0.7-0.5L35.4,55
	l1,0.5H37l0.2-0.5v-0.5l0.7-0.2l1.2,0.5L37,53l-3.1-1l-2.2-2.1v-1l1.2-0.5L32.2,49L32,49.5l1-0.7l1.2,0.2v-0.7l1-0.7l1.2,0.5
	l0.7-0.5l-0.2-0.5h0.7l0.5-0.7l1.9-0.7l1.7,1.2l1.2-0.2l-1.2-1l0.5-1l2.6-0.7l0.2,0.5l1.7-1.2l1.2-0.2H48h1.4l1.2,0.7l-1.2-0.2
	l0.7,0.7l-0.7,1v1.2L48,46.8h1l0.2,1.2l0.7,0.5h3.6v1.2l2.2-0.5l1.2,1v-0.2l0.5-0.7h-0.2l1.2-1.7L60,48v1l-0.5,0.2L60,49l0.5-1
	l-0.5-1l-2.2-1l-0.7,0.5v0.7h-0.2v-0.5l0.5-1l-0.2-1l-1-1.9l-1-0.5l-0.2-1.2l0.5-0.7h0.7l1,1.9l-0.5,1.2l1.7,2.1l1.7-0.7l1.2,1.7
	h2.4l0.2-1.2l-0.5-0.7l0.5-0.5l-1.2,0.5l-1.2-0.7h-1.2l-0.5,0.7l-1,0.2L57.6,43l0.5-1.7l1.2-0.7L58,39.9l-1.4,0.2l-0.2-0.5v0.5
	l-0.7,0.2l0.7-1.7h-0.2l-1,1.4l-4.1-1.7v-2.4l-0.5-1.9l-2.2-3.1l-1.9-2.1l-0.2-0.2l-1.7-1.2l-1.2-1.7l-1.7-1l1.9-0.2l-0.2-0.2
	l0.7-1.2l0.5-1.2v-1.7l6.9,0.5l2.9-1.4l1.7-2.6l-0.5,1.2l0.7-0.7l0.2-1.7l-0.2-0.5l1-0.7l-0.2-0.2l0.2-0.5l4.1-4.5l0.7,0.2l-0.7,0.2
	l0.5,0.2L61.2,10l-0.5,0.2h1.4l0.2-0.7h2.4l-0.2-0.5l3.1-2.2h0.7v0.5l-1,0.7h1l-1,1.4l0.7-0.5l0.5,1.7l-0.2-1.9l0.2-1L69,8.4
	l1.2-0.5h-1.4l-0.5-1.2l-0.7,0.2L69.3,5l1.7-0.5l-0.7,0.2L70.9,5l-1,0.2l0.7,1l-0.2-0.5l1-0.2l-0.2-0.2l1.2,0.2l1.2-0.2L73.1,5H75
	l2.1-1.7L78.8,1l1-1l0.5,0.2l-0.7,0.2l0.2,1L81,1.7l0.2,0.2L81,2.4l0.5-0.5l1,0.2l0.2,0.7l-0.5,1l-1.4,1h0.5v1.4h0.2V5.5h1.2v-1
	l0.5-0.7l0.7,0.2l-0.2-1h0.5V2.6h0.2l-0.2,1.2h0.2l0.2-1l1.2,1l-0.2,1L85,5.3l1.9,1l1-1.2l2.4-0.2L91.5,5L92,5.7V5.3L91.7,5l1,0.2
	l0.7,0.5l-0.7,1.2v0.5l1.4,0.5l-1.9,0.2h2.9l-0.2,0.5h0.2l-0.7,0.5L97,9.8V9.1l1.4-0.7l1.2,0.2v0.7l1.7-1.2h1.2l3.1,1l0.2,0.7l1-0.5
	l1.2,0.2l0.7,1l6.2-0.2l1,0.7l2.2,0.7l2.9-1.2l0.2,0.7v-0.7l-0.2-0.2l1-0.5l1.4-0.2l0.2,0.7V9.6l2.4,0.7l1.4,1.2l1.9,0.2l1.2,1.2
	h0.5l0.2-0.5h-0.5l1.2,0.2l2.2,11.2l5,24.4l7.4,37.5l2.9,15.1l2.4,0.5l0.2-1l2.4,0.7l1.2-1.7l2.9-1v2.6l2.6,1.2l0.7,1.2l6,3.8
	l1.4,3.1l2.6-3.3l1-0.2l0.2-1v-0.2l-0.5-1.9l1-0.7l-0.7-0.5l2.6-2.2l1-1l2.9,1.7l0.2,0.7l-0.2,0.7h0.5l0.2,0.5l0.2,0.5h1.4l1,1h0.5
	l1,1.2l0.7,1l2.4,0.5l2.6,1.9l1,1.4l1.2,1l0.2,0.2l6.2,6l1.2,1l-0.2,1.2h1.7l0.2,1.7l1.4,0.2l0.7,1.7l1.4-0.5l3.1,1l1.7-0.2l1,0.7h1
	l0.5,1l1.7-0.7l1.2,1.9l-0.2,1.7l1,1.9l1.7,1.9l-0.5,0.7l-0.2,3.3l-1,1.7v-0.7l-0.2,1.2l-1-1.9l0.5,1.4l-0.5,0.7l-0.5-0.2l-0.7-1.4
	l-0.5-0.2l0.7-1.2h0.7l0.5-2.9l-0.7,2.9l-0.5-0.5l-0.5,0.7h-0.7l-0.5-0.7l0.5-1l1.7-0.7l-0.5-0.5l-1,0.7l-1.4-3.6l-0.5-0.5V129
	l-0.2,0.2l-1.7-1.2l0.5-1.7l-1.2,1.9l-0.5-0.2l-2.2,2.1l1,0.2l-0.2,1l0.5,0.5l-0.2,0.7l-0.7-0.2l0.5,0.5l0.2,1l-1.4-0.5l-1-1.4h0.2
	l0.2,0.2l-0.2-0.7l0.7-0.5l-0.5-1.2l0.5-0.5l-0.7-1.7l2.2-1.4l-2.2,0.7l-0.7-1h-1l-0.5-0.7l-1-0.2v-1.2l-1.2,0.7l0.2-0.7l-0.5-0.2
	l0.5-1.2l-0.5,0.7l-1.7-0.2l-1.2-1l1-0.2l-0.5-1l-0.2,0.7l-1.7-0.2v-0.5l-0.2-0.2h-0.5v1l-1.4-0.5v-1l1.2-0.5l0.7-1.2l-0.7,1H193
	l0.2-1l-0.7,0.2l-0.5-1l1-0.7l-1.4,0.5l-0.5-0.5l-0.2-0.7l3.8,1l-3.3-1.7l-0.5-1.2l2.2-0.2l-2.2,0.2h-0.2l-0.2,1.4l-1.2-1.4l0.2-0.5
	l0.7,0.5l-0.2-0.7l-0.5-0.2v-1l-0.5,1.9l-1.2-1l-0.5-1.7l0.2-0.5l-0.2-0.7v-1l0.7-0.5l-1,0.5v3.1l-2.1-1h-1.4l-0.2-1l-1.4-1.4h0.2
	l-0.5-1.2l-0.2,0.7l-1-0.7l-0.2-1.2l-0.2-0.2l-1.7-2.4v-0.7l-0.5-1.2l0.2,1.2v0.5h-0.7l1.2,1l0.7,1l-1-1h-0.7l1.2,1l0.2,1.2l1.9,2.9
	v0.5l1,1.2l0.7,1.9h-1.4l-1.2-1.7l0.2,1l-1-0.2l-1.2,0.7v-0.7h-0.2l0.5-0.2l-0.7-1l0.5-0.2l-1.9-1.7l1.2-1.2h-1l-0.2,0.7v-0.5l-1-1
	l0.2,0.7l-0.2,0.5l0.5-0.2l0.2,0.5l-0.2,1.2l-1-0.2l0.5-0.2h-1l-0.5-1.2l-0.2,0.7l-1-1l0.7,1v0.2l-2.4-1l1,1l-0.5,0.2l-0.2,1
	l0.5-0.7h2.1l0.5,0.2h-0.7l0.7,1l0.5,0.2l-0.5-0.7l1,0.5l-0.7,0.7h1v-0.7l1.2,0.7l-0.2,0.7l0.5-0.2l0.7,1.2l-0.2,0.5l-1,0.5
	l-0.2-0.7l-1.2-0.2l0.2,0.5l-0.2,0.2l0.5,0.2l0.2-0.5l0.5,0.7l-1.4-0.2l-0.2,0.2l0.7,0.7l-0.2,0.5l-0.5-0.2v-0.5h-0.7l-0.2-0.7v0.5
	l-0.5-0.5l-0.7,0.2l-3.1-1.2l0.7-1l-1,0.7l-1.7-1.4l-0.5-1l-1.9-1.2h-1.7h0.5l0.2-1l-1,0.7l-3.1-1h0.5l-0.7-0.5l-0.2,0.2l-2.9-1.2
	l1-1l0.2-1l-1-1.7l0.5-1l1.2,1v1.4l0.5,0.7l-0.2,0.2l0.2,0.2l0.2-0.5l-0.7-1.9l1.9-0.2l-1.7-0.2l-1.7-1.4l-0.2,1.2l-1,1.4l-2.4,1.7
	l-3.1-0.5l-2.2-0.2l0.7-1.2l-0.2-0.7l-0.7-0.5l-0.5,0.2l0.7,0.7l-1.4,1l-5-0.7l-5.5,2.2l-1.2-0.2l0.7-0.2l-1.4-0.7l0.2-0.7l-1.7,0.5
	l-0.7-0.7h-1.2l0.5-1.7V102l-0.5,0.2l0.2-1.7l0.7-0.7l-0.7,0.5l-0.2,1l-1.4,2.4l-0.7,0.2l-1.4-1h-1.4l1.2-2.2l-1,0.7l0.2-0.5
	l-0.5,0.2l0.2-0.5l-0.7,0.7l0.2-0.7l-1.4,0.7l1-1l-0.2-0.7l-1,1l-0.2-0.5l-0.7,1h-0.7l-0.2-0.5l2.6-1.2l-0.7-0.5l-0.5,0.7l-1.2,0.2
	v-0.5l-0.7-0.7h0.7l-0.5-0.2V98h0.5l-0.5-0.2l1.9-0.5l-0.2-0.2h-1.4l-1.4,2.2l-0.5-0.2l0.2-0.5h-0.5l-0.2,0.7l-0.2-0.7l-0.5,0.2
	l0.2,0.7l-0.5,0.5l-0.5-0.2l0.2-0.7l-0.2,0.2v-0.5l-0.2,1V98l-0.2-0.7l-0.2,1.4h-0.2h0.2l0.2,1.4l-0.7-0.2v-0.5l-0.2,0.7l0.2,0.2
	l-0.5,0.2l-1.2-1.2l1.4-2.6h-0.2l0.2-0.5l-1.4,2.6l-0.5-1l-1.2,0.7h0.2l-0.2,0.7l1.2-1l-0.2,1.2l-0.5-0.2l0.2,0.5v0.7h-0.5l0.2,0.2
	l-1.7,0.5l1.2-0.2l-0.7,0.5v0.2l-0.2,0.7h0.2l1.2-1.2l-0.2,1.4l1-1.4l0.2,1.4l-0.7,1l-0.7-0.5l-0.7,1.2v0.2v-0.2l1-0.7l1,0.7v-0.7
	l0.2-0.5l0.2,0.7l0.2-1l1,1.2l-0.7,0.7l-0.5-0.2l0.2,0.7l-0.5-0.2v0.2l-0.2,1l-0.5-0.2l0.2,0.5l-0.2,0.5l1-0.7l-0.2,0.2l0.5,0.2
	l-0.2,0.5l0.5-0.7l-0.5,1l-0.5-0.5l-0.5,1.4v0.7l-0.5-0.7v0.7l-0.2,0.2l-0.2,0.2l-1.9-0.2l-0.2-0.2l0.2-0.7h-0.2l-0.7,1.9l-0.2-1.4
	l-0.7-1l0.2,1.2l-1,1.7l0.5,1.2l-0.5-0.2l-0.2-1.7l-0.5-0.5v1.2h-0.5l0.5,0.5l0.2,1.2l-1.4-1.2l0.5,0.7l-0.2,0.5L107,113l-0.5-0.7
	l0.2,1.2l-0.5-0.2v0.7l-1,0.7l0.7-2.6l-1.2,2.6l-0.2-0.5l0.2-0.7l-1,0.5l0.5,0.5l-0.2,0.2l0.2,0.2l-1.7,1.2l0.2,0.7l-0.2,0.5l-0.5-1
	h-1l0.7,1l-1.7-0.5l-1.4,1l-0.2-0.5l-1-0.5l0.2-0.7h0.5l-0.5-0.7l1.2-0.5l1.4,0.2l-0.2-1l1.2-0.7l-0.2-0.5l1-1.2l-1.9,1.2l-0.2,0.2
	l0.2,0.2l-2.4-1.2l0.7-2.9l1.4-1.7v-1.4l0.5-0.5v-1.4l-0.7-1.7l1.7-0.7l2.9-2.6l1.7,1.2l1.2-0.7l3.8,1l-0.7-1l-1,0.2l-3.3-1.9
	l1.4-2.4l2.1-1.2l-2.1,0.5l-0.7,1l-0.5,1.2l-2.4,0.2l-0.5-1.2V97l-1.7,1l-1,1.4l-2.6,1.4l-0.2,1l0.5,1l-0.7-0.2l-1,0.7l-1.2,1.7v0.7
	l0.5,0.5l-0.7,1l-1,0.7l-1.4-0.2v-0.7l-1,0.2h0.7l0.2,0.5l1.7,1.7l-0.7,1.4l-2.4,0.5l-0.2,0.5h1.2v1.2l-1,0.7l-1-0.2l0.5-0.7
	l-0.7-0.5v1.4h-0.5l-0.2-0.5l-0.5,0.5l0.7,0.2v0.5l-1.4,0.2l0.5,0.2v0.7l-1.9,0.5l1,0.2l-0.7,0.5v1.2l-0.7,0.5l0.5,0.2v1l0.5-0.7
	l1.7,0.2l1.4,0.7l0.7,1.2h-0.5h0.7h-0.2l-0.5,0.2l-0.2,1.2l-1,1h-1.4l-0.2,1l0.2,0.2l-1,0.2l0.5,1l-1.7,1h1.2l-0.7,0.2l0.5,0.2
	l-0.2,0.5h-0.5l0.2,0.5l-0.5-0.2v0.7l-0.7-1.2v1.2l-0.7-0.5l0.5,0.7l-0.2,0.2l-0.5-0.5l-0.7,0.7l-1.2-0.2l-0.5,0.7l0.2,0.7l-1.2,0.5
	v1l-1.4-0.7l-0.2,0.7l0.2,0.5l-1,0.2v1l-1.4-0.2v0.5h-0.2l0.2,0.7l-1-0.2l-1.7,1.4l-0.2,0.5l1.2-0.2l-0.5,0.7l0.2,0.2l0.2,0.2
	l-0.2,0.2l-0.5,0.2l-0.2,0.7l-0.7-0.2l0.5,1l-1.2-0.7l-0.2,1.4l-0.7-1v0.7l-0.7,0.7l-0.5-0.2l0.2,0.2l-0.5,0.5l-1.2-0.7l0.2,0.7
	l-1.2,0.5l0.7,0.5v0.5h-1.2l-0.5-0.7l-1.7,1l-0.2,0.5l1.4-0.2v1l-1.4-0.5v0.5H64l-1.2,1.7l0.5,0.2V145l0.5-0.5l1.4,0.7l-1.2,0.5
	l0.5,0.5l1.2-0.5l-1.4,1l-0.2-0.5v1l-0.5-0.2l0.2,1l-0.7-0.2l0.2-0.5l-0.5,0.2v-0.5l1-1h-1l0.2,0.2l-0.5,0.5l-0.2-0.2l0.2,0.7
	l-0.5,0.2l0.5,0.2l-0.2,0.5l-1-0.5l-0.2,1h-2.4l-0.5,1l-0.2-1.2l-0.2,0.2v1.2l-0.5,0.7l-0.2,1l-0.7-0.2l0.7-0.2l-0.5-0.5l0.5-0.2
	l-0.2-0.5l0.5-0.7l-1.2-0.5l-0.2,0.7h-1l-0.2,0.7l-0.5-0.2v0.7l-1.7-0.2l0.5,0.5l-1,1.2l-0.2-1.2l-1,0.5l0.5,0.5l-0.2,0.2h-0.7
	l-0.5-0.5l-1.9,1.2l-1.4-0.2l0.2-1l0.7-1l1.2,0.5l-2.2-1l-1,1v1l-1.4,1.7l-0.7-0.2l0.2,1.4H43l-0.2-0.2l0.2-0.5l-0.7,0.2v1l-1.2-0.2
	l-0.5-0.7h1l-1.2-1.7l0.2-0.2h-0.5l-0.5,0.7l0.7,0.5l-0.5,1l0.5,1.2l-0.5-1l-0.5,0.7l-1,0.2l-0.5-0.7l0.5-0.2l-1.4-1.4l-0.2,0.5v0.7
	l0.7,1l-1.9,1V156l0.7-0.5h-0.5l0.2-0.5h0.5l-0.2-1.4l1.9-1l-0.5,0.5h1.2l0.2-0.2l-0.2-0.5l2.1-0.7l0.2-0.7l-0.7,0.2l5-4.1l3.3-0.7
	l-1,0.5l0.5,0.2l2.2-0.2v0.5l-1,0.2l0.5,0.2v0.5l0.7,1.2h0.7l-0.5-0.7l-0.2-1l1.7,0.2v0.7l1.2,0.5l-0.2-0.5l0.5-0.2l-1.7-1l1.2-3.3
	l3.1-2.2l3.6-1.2l-0.5-0.2l0.2-0.2l2.1-1.4l-1,1l0.5-0.5l0.7,0.5l0.7,0.5v-2.1l0.2-0.7l2.2-2.4l1.2-0.5l0.7-1.2l1.2-0.5l0.2,0.7h1.4
	v-0.7l-0.5,0.2l0.2,0.5h-1v-1.4l-0.5-0.2l0.7-4.1l1.2-1.2l1.2,0.5l-1-0.7l-0.7,0.2l-0.2-1v-1l1.7-1.9v-0.2l1.7-1l-0.7-0.2l0.7-1.4
	l0.5-0.7l0.5-1.7l-0.5,0.5l-0.2,1l-1.2,1.2l-0.2,0.2l-5.3,2.2l-0.7-0.5v-1l-1-0.7l0.5-1.2l0.2-0.2l-0.2-0.2h1.4l0.7,1.2l0.2-0.2
	l-0.7-1.2l-1.4-0.5l-0.5-1.2l0.5,1.2l-1.4,1.7l-0.2-0.7l0.2-0.5l-0.5,0.2l0.2,0.5l-0.2,1.4l-0.5,0.5l0.5-0.5l-0.2-0.2l-0.5,0.2
	l1,2.9l-0.7,0.7l-1.2-0.2l-1.4-3.6l-1.2-0.7l0.2-1H59v0.7l-1,0.7l-0.2-1l-1.2-0.2l-0.2-0.7l0.2-0.2l-0.2-0.7l-2.6,1.9l-0.2-0.5
	l-2.1,0.5v0.5L51.1,120.2z M30.3,100.8l0.2,0.7l1.7,0.7l-0.5,1.2l0.2,0.7l-0.5,0.2l0.7,1l-0.5,0.7h-3.1l0.7,0.2v0.7l-4.5-3.3l-0.7-1
	l-0.5-1.2l2.9,0.5l0.5-0.7l1.4-0.7l0.5,0.5L30.3,100.8z M30.8,157.7l-1.4,1.4l-1.4,0.2l-1.2-0.5l-0.2-1.7l1.4-0.5l1.7-2.1l1.4,0.5
	l0.5-0.7l2.2-0.5l1.4,0.2l0.5,2.6l1.2,0.2l0.5,1.2l-1.7-1.2l-0.5,1l-1,0.2L30.8,157.7z M15.3,165.6l-0.2-0.2v0.7l-0.5-1v1.2
	l-0.7-0.5l-1.7,0.2l-2.2,1.2h-1l-1-1l1-0.5l1.2,0.2l0.2-0.5l0.7,0.5l0.2-0.7l0.7,0.2v-0.5l1.4,0.2l-1.2-1h1l-0.2-0.5l0.2-0.5
	l0.7,0.2l0.5,1v-1h0.7l-1.7-0.7l-0.7-1l2.6-1l1,0.5L16,162v0.7l1-0.2l0.7-1v0.5l0.5-0.2v0.7l0.2-0.2l-1.9,1.2h0.2l-0.7,0.5l0.5,0.2
	l0.5-0.5l0.2,0.5l0.2-0.5l0.2,1l-1.7,0.2l-0.5,0.7l-0.2-0.7V165.6z M17.9,164.4l-0.2-1l1.2-0.2L17.9,164.4z M8.8,164.6l-0.7,1
	l-2.6,1L4.1,168L0,169.4l1.4-1l1-1v-1l1.2-1l1.4,0.5l-0.2-0.7l0.7-1.2l2.2-0.5L8.8,164.6z M14.8,67.1l-1.9,0.7l-1-0.7l-0.2-1.4
	l1-1.4l0.2-1.2l0.2,0.2v1l0.7,0.7l-0.2-0.2L13.4,65v0.2l1-0.2l1.4,1.2l1.4-0.7l1.4,0.2l0.7,1.2v0.5l-0.2,0.5l3.3,2.6l2.1,0.5
	l-1.2,1.2l-1.9-0.7l-1.9,1.9l-0.2-1.9l-0.7-0.2l-0.7-1.7l-2.1-2.4H14.8z M125.2,103.9l-2.1,1.7l-0.5-0.5l1-0.7h-1.2l0.5-1.2
	L125.2,103.9z M121.4,105.4l-1.2,1.7l-0.5,1v0.5l-0.5,0.5v0.7l-1.9,1l0.7-1.2l-0.5-0.2l0.7-0.5l-0.2-0.2l2.1-2.6v-1h0.7l-0.2,0.7
	L121.4,105.4z M97.5,125.7l-0.2,1.2l0.7-1v0.5l-0.5,1.2H97l-0.5-1l-0.2,0.2v0.5H96l0.5,0.7l-1.4,0.2v-1l-0.5,1.2h-0.7v0.7l-2.4-1.7
	l0.5-0.5l1.2,0.5l-1-1l0.5-0.2l1.2,0.5v-1.2l-0.5-0.2l1-0.2v-0.5h1l-0.2,0.5l0.7,1l0.2-1L97.5,125.7z M190.6,120.4l-1.4-0.5l1,1.2
	l-1,1.9l-1,1.2l-0.2-1.4l-0.5-0.5l0.5-0.2l-0.5-0.5l0.5-0.5l-0.7-0.7l1.2,0.5l0.2-0.7l-1,0.2l-0.7-0.7l1-1l-1,0.7l-0.7-0.7l-1.9-3.8
	l-0.2-1.4v0.7l-1-0.7l0.2-0.5l-0.5-0.2l-0.5-1.2l1,0.7l1.2,1.2l2.4-0.7l0.2,0.7l2.1,2.2l0.5,1.2l0.7,0.7l-1.2-0.7l-2.4-2.6l0.5,0.2
	l-1-0.7l0.5,0.5h-0.2l0.5,0.5h-0.5l0.7,1.4v-0.5l1.4,1.4v0.5h0.7l1,1.2h-1.2l0.2,0.2l-0.2,0.2h0.7v0.2l0.5-0.2l0.2,0.5L190.6,120.4z
	 M184.9,111.6l1.7,1l-1.9,0.2l-0.5-0.5L184.9,111.6z M179.2,116.8l3.1,1.2l0.2,0.2v0.5l2.1-1l1.2,2.4l-0.7,0.5l-5-1.7l0.7,0.5
	l-0.5,0.5l1.4,0.2l-0.5,0.5h0.7l0.2,0.7l-0.5,1h-1l-1-0.7l1.2,0.2l-1.9-1l0.7-0.5l-1,0.2v-0.7l-1-0.7h-1V119v-1.4l1.9,1l-2.9-1.9
	l1-0.2l-0.7-1l0.2-0.2l1,1.2l0.5,0.2l-0.7-1.2l0.2-0.5l0.7,0.5l0.7-1.4l1.7,0.7l-0.2,1.2l-1,0.2l1,0.2l-0.7,0.5l0.7,0.2l0.7-2.4
	l2.6,0.5l0.5,1l-0.2,0.5l0.5,0.2l-1.9-0.5l1.9,1l-0.5,0.2l-1,0.2L179.2,116.8z M90.8,137.4l-0.2,0.5l-0.5-0.5l0.2,1l-1.4,0.2h1
	l-0.5,0.2l0.7,0.5l-0.2,0.2l-0.5-0.2l-0.5,0.7l0.5,0.2l-1.4,1.2h-1l1.9-2.4h-1l1.2-1.4h-0.5l-1.4,1.7v-0.7l0.7-0.7h-2.6v0.5l0.5,0.2
	l0.5-0.7h1l-0.2,1.7l-0.7,0.5v0.2h0.2l-0.2,0.2l-0.2-0.7l-1.2-0.7l0.2-1.4l-0.5-1.2l-1-0.2h0.2l-0.2-0.5h0.5l-0.2-0.7l1-1.2L85,134
	v-0.7l0.5,0.2l-0.2-0.2l0.7-0.5l0.5-0.2l1.2,0.2l0.2,0.7l-0.7,0.2h0.7l0.5,1.2l1.2,1.4l-1-1.2l-0.2-1.7l1,0.2l-1-1l1.4,0.2l-1.7-1
	v-1l1.4-0.7l0.7,2.4l-0.2-0.7h0.5l-0.2-0.5l1,0.2l-1-1l1.4,0.5l0.2,0.7l-0.5-1.9l1.2,0.7l-1.2-1.7l2.2,0.7l-0.2,1v1l0.2-1l1.2-0.2
	V130l1.4,1l-1.2,1.2l0.7-0.2l-0.2,0.7l0.5-0.2l-0.2,0.7h1.4l-1,1.7l-3.1-0.7l0.2,0.2l-0.7,0.5l1.2-0.2l1.2,0.7l-0.2,0.7l-1.2,0.5
	v-0.7H92v0.5l1.2,0.2l-2.4,0.5V137.4z M190.2,132.1l-2.9-2.9l0.5-1.7l-0.5,0.7v-1H187l-0.2,1.4l-0.2-0.7l0.2-1l-0.7,1v-1.4l-0.7,0.5
	l-0.5-0.2l0.2-0.7l-0.7-0.5l1-1h-1.2l-0.2-0.7l0.5-0.2l-0.7,0.2l0.2-1l-1,0.5l-1.2-1l1.2-0.2l-1-0.2l0.5-0.5l-0.2-0.7l1-0.5l0.2,0.2
	l-0.5,0.7l1.2-0.7l-0.2,0.5h1.2l0.7,0.5h-0.5l0.2,0.2l-0.2,0.2l1,0.2l2.6,4.5L190.2,132.1z M181.8,122.8l1,0.7h-0.2l0.5,1v1.2
	l-1,0.5l-0.2-1l0.5-1l-0.7,0.2l-0.5-1.4L181.8,122.8z M196.1,122.1l1,0.7l-0.2,0.7l1,1.4l-0.5,0.5l-2.4-1.7l0.5,1h0.7v0.7h0.7
	l-0.2,0.2l0.7,0.5l-0.2,0.7h-1.4v0.5l-0.7,0.5h-0.2l-0.5-1H194l0.2-0.5l-0.5-0.5l-0.5-1.9l-0.2,0.7l-1-0.7l0.7-0.2l-1.7-0.5l0.5-1
	h3.1l0.5,0.5l-0.5-0.7H196.1z M194,131.7h-0.5l-0.5-1.9v1.4h-0.5l0.7,0.2l0.2,1.2l-0.7-0.2v-1l-0.7-0.7l0.2-0.7l-0.5,0.2l-0.2-0.5
	l0.2-1l0.5,0.7V129l0.5,0.2l-0.2-1.2l-0.5-0.5v0.7l-1.2-0.5l1-1.2l-0.7,0.7v-1l-0.5,0.5l-0.5-0.5l-0.5-1.2l0.7,0.5l-0.5-1l1.2,0.2
	l-1-0.7l1.4,0.2l0.5,0.5l0.5,1l-0.5,0.7l0.7-1l-0.2-0.7h0.7v1l0.7,0.5l-0.2,0.5l-1-0.2l0.5,0.5l-0.2,0.7l0.7,0.5l-0.5,0.2l0.7,1.2
	l-0.7-0.5l0.2,0.7l0.5,0.2l-0.2,0.5L194,131.7z M197.8,123.3l2.2,1.4l-1.2,0.7l0.5,0.2l-0.2,0.2l-1,0.2l-0.2-0.7l0.2-0.7l-1-1.2
	L197.8,123.3z M201.1,125.4l1.2,0.7h1l1,1l-0.5,1.2l-1.7-0.7l-0.5-0.5L201.1,125.4z M199.5,126.2l0.5,0.5l0.2,1.2l-1,0.7l-1.2-0.7
	l0.2-1.2L199.5,126.2z M203.5,134.5l1.2,0.2l-1,1l1.2-0.7l0.7,0.2l0.5,0.7l-0.7,0.5l0.2,0.5l0.7-0.2l0.2-1l0.2,0.5l0.2,1.2l-0.5,0.2
	l0.5,0.5l-0.7,0.7l1.2-0.7v0.5l0.5,0.7h-0.5l1,1h-0.5l0.5,1l-1.7,0.2l0.2-1l-1,0.2l0.5-0.5l-1-0.5l-0.2-1v1.2l-0.2-0.7l-0.2,0.5
	l-0.5-0.2l0.2-0.5h-0.2l0.5-0.2l-0.7-0.7l-0.2,0.7v-1l-0.7-0.7l0.5,0.7l-0.2,0.5l-0.7-0.2l-0.2-0.7l-1,0.7l0.2-0.7l-1.7,0.5
	l-0.2-0.5l0.2-0.5l1.9-0.2h-1l-0.5-0.5l0.5-0.2l-1-0.2V135l0.7-1l-1.7,1.2l-0.7-0.2l-0.5-1l0.7-0.5l0.2-1.4h-0.7l-0.7-2.2h-2.1
	l-0.2-0.5l0.2-0.5l-0.2-0.2l1.4-0.5l0.2,0.7l0.5-1l1,0.7l0.2,0.5l-0.2,0.7l0.5,0.5h1.9l1.7,1.2l1,1.7l0.2-0.5l0.7,1l1,0.5v0.2
	l-2.4-1v0.5l0.2,0.2l-0.5,1.2L203.5,134.5z M201.4,126.9l0.2,1l-0.2,0.5l0.5-0.5l1.7,0.5l-0.5,0.5l1,1.2l-0.5-0.2l-0.7,0.7l-0.5-0.2
	v-0.7l-1.4,0.2l-0.5-0.2l-0.2-1.2l0.5-0.2v-1.2H201.4z M197.3,130.2l0.2,1.2h-0.7l-0.5,1.2l-1,0.2l0.2-1.4l1-0.5l-1-0.2L197.3,130.2
	z M208.5,134.8l-1.7-1l0.7-1.2v-0.5h-0.5l-0.2-0.5l1-1l-1.2,0.5l1-1h-1.2l1.4-0.7l-1-0.2l1.7-1l2.4,2.1l0.7,2.4h-0.5l0.5,1.2l-0.2,1
	h-1l0.2-1l-0.5-1v1.4l-0.7,0.2l0.5-1.7l-1.2-1.9l1,2.2l-0.5,1l-0.5-1.9l-0.2,0.7l0.7,1l-0.2,0.7H208.5z M207.1,134.3l1.4,0.7
	l-0.5,0.7l0.5,1l-0.7-0.7l-0.7-1.2V134.3z M209.5,135.2l0.7,0.2l0.5,1.4l-0.5,0.5l-0.5-0.7l0.2,0.5l-0.2,0.5l-0.5-1l0.5-0.5l-1-1
	H209.5z M200.9,138.1l1.4,1.4l-0.7-0.2l2.4,1.9l0.5,0.5l-0.2,0.2l0.7,0.7h-1l-1-0.7l0.2-0.5l-1.7-0.7l-0.7-1.2l0.5-0.2l-0.7-0.5
	L200.9,138.1z"/>
<g>
	<g>
		<path fill="#8D1E24" d="M174.1,40.2h-10.7l-1.6,4h-5.7l12.6-31.7l12.7,31.7h-5.7L174.1,40.2z M172.1,35l-3.3-8.2l-3.3,8.2H172.1z"
			/>
		<path fill="#8D1E24" d="M202.1,38.9v5.3h-17V12.5h5.3v26.4H202.1z"/>
		<path fill="#8D1E24" d="M223.8,40.2H213l-1.6,4h-5.7l12.6-31.7L231,44.2h-5.7L223.8,40.2z M221.7,35l-3.3-8.2l-3.3,8.2H221.7z"/>
		<path fill="#8D1E24" d="M233.4,35h5.3c0.1,2.6,2.3,3.9,4.6,3.9c2.4,0,4.6-1.4,4.6-3.9c0-2.7-2.5-3.9-4.6-4c-0.3,0-2.4,0-4.7-1
			c-3.3-1.5-5.2-4.4-5.2-8.2c0-5.6,4.8-9.2,9.9-9.2c5.5,0,9.8,3.8,9.9,9.2h-5.2c-0.1-2.6-2.2-3.9-4.6-3.9c-2.5,0-4.6,1.4-4.6,3.9
			c0,2.6,2.3,4,4.6,4c0.2,0,2.4,0,4.7,1c3.3,1.5,5.2,4.4,5.2,8.2c0,5.7-4.7,9.2-9.9,9.2C237.8,44,233.5,40.5,233.4,35z"/>
		<path fill="#8D1E24" d="M269.5,28.6l13.2,15.6h-6.9L266,32.6l-3,3.3v8.2h-5.3V12.5h5.3V28l13.9-15.5h7.1L269.5,28.6z"/>
		<path fill="#8D1E24" d="M303.1,40.2h-10.7l-1.6,4h-5.7l12.6-31.7l12.7,31.7h-5.7L303.1,40.2z M301.1,35l-3.3-8.2l-3.3,8.2H301.1z"
			/>
	</g>
	<path fill="#8D1E24" d="M159.4,53.4v4.3h8.7v2.9h-8.7v7.2h-2.9V50.5h11.6v2.9H159.4z M170.5,50.5h2.9v17.3h-2.9V50.5z M181.7,60.6
		h-2.4v7.2h-2.9V50.5h5.8c0,0,5.8,0,5.8,5c0,2.8-1.8,4-3.3,4.6l3.5,7.7H185L181.7,60.6z M179.4,57.7h2.9c0,0,2.9,0,2.9-2.2
		c0-2.2-2.9-2.2-2.9-2.2h-2.9V57.7z M193.4,53.4v4.3h8.7v2.9h-8.7v4.3h8.7v2.9h-11.6V50.5H202v2.9H193.4z M214.9,62.7h2.9
		c0,1.4,1.2,2.2,2.5,2.2c1.3,0,2.5-0.8,2.5-2.2c0-1.5-1.4-2.1-2.5-2.2c-0.1,0-1.3,0-2.6-0.6c-1.8-0.8-2.8-2.4-2.8-4.5
		c0-3.1,2.6-5,5.4-5c3,0,5.3,2.1,5.4,5h-2.9c0-1.4-1.2-2.2-2.5-2.2c-1.4,0-2.5,0.8-2.5,2.2c0,1.4,1.2,2.2,2.5,2.2
		c0.1,0,1.3,0,2.6,0.6c1.8,0.8,2.8,2.4,2.8,4.5c0,3.1-2.6,5-5.4,5C217.3,67.7,215,65.8,214.9,62.7z M239.6,63.2l2,2.1
		c-1.6,1.6-3.7,2.5-6.1,2.5c-4.8,0-8.7-3.9-8.7-8.7c0-4.8,3.9-8.7,8.7-8.7c2.4,0,4.6,1,6.1,2.5l-2,2c-1-1-2.5-1.7-4.1-1.7
		c-3.2,0-5.8,2.6-5.8,5.8c0,3.2,2.6,5.8,5.8,5.8C237.1,64.9,238.6,64.3,239.6,63.2z M244.6,50.5h2.9v17.3h-2.9V50.5z M253.4,53.4
		v4.3h8.7v2.9h-8.7v4.3h8.7v2.9h-11.6V50.5h11.6v2.9H253.4z M279.5,67.8h-2.9L268,55.5v12.3h-2.9V50.5h2.9l8.6,12.3V50.5h2.9V67.8z
		 M294.3,63.2l2,2.1c-1.6,1.6-3.7,2.5-6.1,2.5c-4.8,0-8.7-3.9-8.7-8.7c0-4.8,3.9-8.7,8.7-8.7c2.4,0,4.6,1,6.1,2.5l-2,2
		c-1-1-2.5-1.7-4.1-1.7c-3.2,0-5.8,2.6-5.8,5.8c0,3.2,2.6,5.8,5.8,5.8C291.8,64.9,293.3,64.3,294.3,63.2z M301.7,53.4v4.3h8.7v2.9
		h-8.7v4.3h8.7v2.9h-11.6V50.5h11.6v2.9H301.7z"/>
	<g>
		<path fill="#8D1E24" d="M168.8,85.8l2,2.1c-1.6,1.6-3.7,2.5-6.1,2.5c-4.8,0-8.7-3.9-8.7-8.7c0-4.8,3.9-8.7,8.7-8.7
			c2.4,0,4.6,1,6.1,2.5l-2,2c-1-1-2.5-1.7-4.1-1.7c-3.2,0-5.8,2.6-5.8,5.8c0,3.2,2.6,5.8,5.8,5.8C166.3,87.5,167.7,86.9,168.8,85.8z
			"/>
		<path fill="#8D1E24" d="M188.6,81.8c0,4.8-3.9,8.6-8.7,8.6c-4.8,0-8.6-3.9-8.6-8.6c0-4.8,3.9-8.7,8.6-8.7
			C184.7,73.1,188.6,77,188.6,81.8z M185.7,81.8c0-3.2-2.6-5.8-5.8-5.8c-3.2,0-5.8,2.6-5.8,5.8c0,3.2,2.6,5.8,5.8,5.8
			C183.1,87.5,185.7,84.9,185.7,81.8z"/>
		<path fill="#8D1E24" d="M205.5,90.4h-2.9L194,78.1v12.3h-2.9V73.1h2.9l8.6,12.3V73.1h2.9V90.4z"/>
		<path fill="#8D1E24" d="M208,85.4h2.9c0,1.4,1.2,2.2,2.5,2.2c1.3,0,2.5-0.8,2.5-2.2c0-1.5-1.4-2.1-2.5-2.2c-0.1,0-1.3,0-2.6-0.6
			c-1.8-0.8-2.8-2.4-2.8-4.5c0-3.1,2.6-5,5.4-5c3,0,5.3,2.1,5.4,5H216c0-1.4-1.2-2.2-2.5-2.2c-1.4,0-2.5,0.8-2.5,2.2
			c0,1.4,1.2,2.2,2.5,2.2c0.1,0,1.3,0,2.6,0.6c1.8,0.8,2.8,2.4,2.8,4.5c0,3.1-2.6,5-5.4,5C210.5,90.3,208.1,88.4,208,85.4z"/>
		<path fill="#8D1E24" d="M238.6,81.8c0,4.8-3.9,8.6-8.7,8.6c-4.8,0-8.6-3.9-8.6-8.6c0-4.8,3.9-8.7,8.6-8.7
			C234.8,73.1,238.6,77,238.6,81.8z M235.7,81.8c0-3.2-2.6-5.8-5.8-5.8c-3.2,0-5.8,2.6-5.8,5.8c0,3.2,2.6,5.8,5.8,5.8
			C233.2,87.5,235.7,84.9,235.7,81.8z"/>
		<path fill="#8D1E24" d="M246.9,83.2h-2.4v7.2h-2.9V73.1h5.8c0,0,5.8,0,5.8,5c0,2.8-1.8,4-3.3,4.6l3.5,7.7h-3.2L246.9,83.2z
			 M244.6,80.3h2.9c0,0,2.9,0,2.9-2.2c0-2.2-2.9-2.2-2.9-2.2h-2.9V80.3z"/>
		<path fill="#8D1E24" d="M267.2,76h-4.3v14.4H260V76h-4.3v-2.9h11.6V76z"/>
		<path fill="#8D1E24" d="M270.2,73.1h2.9v17.3h-2.9V73.1z"/>
		<path fill="#8D1E24" d="M276.1,84.6V73.1h2.9v11.5c0.1,2,1.8,2.9,3.6,2.9c1.8,0,3.6-1,3.6-2.9V73.1h2.9v11.5c0,3.7-3,5.8-6.5,5.8
			C279,90.3,276.1,88.2,276.1,84.6z"/>
		<path fill="#8D1E24" d="M310.8,90.4H308V79.8l-5,10.6h-2.7L295,79.6v10.9h-2.9V73.1h2.9l6.6,13.5l6.3-13.5h2.9V90.4z"/>
	</g>
</g>
<g>
	<path fill="#8D1E24" d="M98.3,20.9c-0.7,4.1-1.3,8-1.3,12c0,2.4,0.3,4.6,1.5,6.7c2.4,4.5,3.2,9.3,2.9,14.4c-0.4,5.5-1,11-2.5,16.7
		c-1-1.5-1.9-2.7-2.8-4c-1.6,2.8-2.8,5.7-3.2,8.8c-0.3,2-0.4,4-0.5,6.1c0,1.1-0.4,1.4-1.4,1.4c-0.6,0-1.2,0.1-1.8,0.2
		c-2.2,0.3-2.8,1.1-1.9,3.1c1.3,3,1.5,6.1,1.3,9.3c-0.2,2.5-0.7,4.9-1,7.4c-0.1,1-0.7,1.3-1.5,1.5c-5.9,1-10.7-1.6-13.1-7.3
		c-1.9-4.5-2.3-9.2-2.3-14c0-1.6,0.2-3.2,0.4-5.1c0.9,1,1.6,1.9,2.4,2.8c1.2,1.3,2.7,2.1,4.4,2.5c0.4,0.1,0.8,0.2,1-0.1
		c0.3-0.4,0.1-0.7-0.1-1.1c-2.6-5.6-2.2-11.3,1-16.4c2.3-3.6,3.4-7.3,3.8-11.4c0.1-1.2,0-2.4-0.6-3.4c-0.4-0.7-0.2-0.9,0.5-1
		c1-0.1,1.7,0.2,2.2,1c1.1,1.7,2.1,3.4,2.3,5.6c0.1,0.8,0.2,2.1,1.1,2.1c1,0.1,0.9-1.2,1.1-2c1-4.7,0.7-9.4,0.2-14.1
		c-0.5-5.1-0.5-10.1,1.6-14.8C93.3,24.5,95,22.7,98.3,20.9z"/>
	<path fill="#8D1E24" d="M106.3,81.2c-1,2.3-2.1,4.5-3.1,6.8c-1,2.2-2.2,4.3-3.1,6.9c10.3-7.7,18.7-30.7,14.8-40.3
		c-0.3,0.5-0.5,0.9-0.8,1.3c-0.4,0.6-0.6,1.5-1.5,1.2c-0.9-0.3-1.2-1-1.2-1.9c0-0.8-0.1-1.5,0-2.3c0.4-3.1,1-6.1,1.2-9.2
		c0.1-3.6-2.2-7.5-5.6-9c-0.2,0.3,0,0.6,0.1,0.9c0.7,2.6,1.2,5.2,1.3,7.8c0.2,3.9-0.2,4.1-3.5,2.3c0,0-0.1,0-0.3,0
		c-0.2,4.9-0.2,9.9,1.2,14.7c1.1,3.7,1,7.4,0.2,11.1c-0.4,2-1.1,3.9-1.8,6.2c1.4-1.4,2.6-2.6,4-4.1
		C107.8,76.5,107.4,78.9,106.3,81.2z"/>
	<path fill="#E65D3A" d="M100.8,86.6c-0.9,0-1.7,0.5-2.2-0.1c-0.5-0.7,0-1.5,0.4-2.1c0.2-0.3,0.4-0.6,0.6-0.9
		c1.4-1.5,1.8-3.3,1.9-5.2c0.1-1.8-0.4-3.4-2-4.7C99.1,77,98.4,80.1,97,83c-0.9-0.8-0.9-1.9-1.7-2.6c-0.7,3.4-1.3,6.6-1.9,9.8
		c-0.1,0.8-0.4,1.1-1.2,0.8c-0.3-0.1-0.6-0.4-0.9-0.1c0.2,1.4,0.4,2.7,0.5,4.1c0.1,1.4,0.1,2.8,0.1,4.6
		C95.8,95.9,99.4,92.1,100.8,86.6z"/>
</g>
</svg>
